<svg width="198" height="34" viewBox="0 0 198 34" fill="none" xmlns="http://www.w3.org/2000/svg">
    <path d="M28.7888 22.0084L28.7879 22.0086L28.7875 22.0087C28.7875 22.0087 28.7875 22.0087 28.7882 22.0119L28.8802 23H32.1256L35.3983 27.5H30.3117L26.3732 22.2471L26.2232 22.047H25.9731H20.5837H20.0837V22.547V27.5H15.8802V6.5H28.9457L28.9457 6.5L28.9461 6.5L28.9466 6.5H28.9466L28.9467 6.50001L28.9561 6.50015C28.9654 6.50033 28.9807 6.50072 29.0016 6.50156C29.0435 6.50325 29.1077 6.50673 29.1911 6.51391C29.358 6.5283 29.6005 6.55746 29.8932 6.6164C30.4805 6.73463 31.2588 6.97048 32.0331 7.43836C33.5496 8.35466 35.1368 10.2101 35.1368 14.0855C35.1368 17.469 33.5499 19.4317 31.9673 20.5658C31.1688 21.138 30.3675 21.5008 29.7648 21.7202C29.4642 21.8297 29.2151 21.9027 29.0432 21.948C28.9573 21.9706 28.8909 21.9863 28.8472 21.996C28.8254 22.0009 28.8092 22.0043 28.7992 22.0063L28.7888 22.0084ZM20.5837 10.3889H20.0837V10.8889V18.0342V18.5342H20.5837H28.5749V18.0342C28.5749 18.5342 28.5753 18.5342 28.5757 18.5342L28.5766 18.5342L28.5786 18.5342L28.5832 18.5341L28.5949 18.5339C28.6038 18.5336 28.6148 18.5332 28.628 18.5325C28.6542 18.531 28.6888 18.5283 28.7305 18.5233C28.8137 18.5132 28.9264 18.4939 29.0586 18.4568C29.3234 18.3823 29.6695 18.2353 30.0122 17.9464C30.7133 17.3552 31.305 16.2554 31.305 14.2735C31.305 12.4614 30.7008 11.4514 29.9922 10.9137C29.6491 10.6533 29.3054 10.5227 29.0459 10.457C28.916 10.4242 28.8056 10.4072 28.7246 10.3984C28.684 10.394 28.6505 10.3916 28.6252 10.3904C28.6125 10.3897 28.6019 10.3893 28.5935 10.3891L28.5825 10.3889L28.5783 10.3889L28.5765 10.3889L28.5756 10.3889C28.5753 10.3889 28.5749 10.3889 28.5749 10.8889V10.3889H20.5837Z" fill="white" stroke="white"/>
    <path d="M43.3802 23.5V24H43.8802H55.3802V27.5H38.8802V11.5447V6.50002L55.3802 6.50075V10.1219L43.8801 10.1239L43.3802 10.1239V10.6239V14.5V15H43.8802H54.3802V18.5H43.8802H43.3802V19V23.5Z" fill="white" stroke="white"/>
    <path fill-rule="evenodd" clip-rule="evenodd" d="M65.8802 6L57.8802 28H63.3802L64.8802 24H74.8802L76.3802 28H81.8802L73.8802 6H65.8802ZM70.8802 10.5H68.8802L66.3802 19.5H73.3802L70.8802 10.5Z" fill="white"/>
    <path d="M88.3323 23.5V24H88.8323L100.61 24V27.5H84.3802V6.5L88.3323 6.5V23.5Z" fill="white" stroke="white"/>
    <path d="M107.61 27.5H103.61V6.5H107.61V27.5Z" fill="white" stroke="white"/>
    <path d="M117.79 10.5V10H117.29H110.61V6.5H129.61V10H122.931H122.431V10.5V27.5H117.79V10.5Z" fill="white" stroke="white"/>
    <path d="M141.11 20V19.8601L141.038 19.7405L132.999 6.5H137.33L142.684 15.2607L143.092 15.9289L143.526 15.2774L149.378 6.5H153.695L145.19 19.7296L145.11 19.8531V20V27.5H141.11V20Z" fill="white" stroke="white"/>
    <path d="M176.715 11.6222H170.868L175.036 6.50001H180.887L176.715 11.6222ZM169.577 12.6222L181.574 27.5H174.762L169.943 21.5469L170.348 21.0469H169.537L157.664 6.5H164.64L169.173 12.1208L168.765 12.6222H169.577ZM162.422 22.0469H168.252L163.837 27.5H157.979L162.422 22.0469Z" fill="#F3DD18" stroke="#F3DD18"/>
</svg>
