<svg width="103" height="12" viewBox="0 0 103 12" fill="none" xmlns="http://www.w3.org/2000/svg">
    <path d="M8.12604 8.50785L8.12938 8.50719L8.1535 8.50224C8.1762 8.49741 8.21174 8.48943 8.25827 8.47773C8.35147 8.4543 8.48803 8.41612 8.65341 8.35864C8.98569 8.24316 9.42571 8.05274 9.86246 7.75398C10.7226 7.16558 11.5752 6.15941 11.5752 4.41026C11.5752 2.38378 10.715 1.44627 9.91391 0.984259C9.49701 0.74381 9.07553 0.621433 8.75519 0.559869C8.596 0.529276 8.46469 0.514256 8.37547 0.506913C8.33095 0.503248 8.29718 0.501518 8.27598 0.500705L8.25393 0.500048L8.25174 0.5C8.25195 0.5 8.25217 0.5 8.25221 0.215863C8.25222 0.156962 8.25222 0.0858515 8.25221 0L8.12604 8.50785ZM8.12604 8.50785L8.12561 8.50793C8.12565 8.50792 8.12569 8.50791 8.12635 8.51137L8.21429 9.5H9.96665L11.4905 11.5H9.13244L6.9463 8.71679L6.79616 8.52564H6.5531H3.47345H2.97345V9.02564V11.5H1V0.5H8.25072L8.12604 8.50785ZM3.47345 2.16667H2.97345V2.66667V6.5641V7.0641H3.47345H8.03982V6.5641C8.03982 7.0641 8.04022 7.0641 8.04063 7.0641L8.04146 7.0641L8.04322 7.06409L8.04713 7.06405L8.05646 7.06387C8.06333 7.06369 8.07151 7.06339 8.08092 7.06288C8.09973 7.06187 8.12356 7.06006 8.15169 7.05682C8.20781 7.05037 8.28208 7.03816 8.3685 7.01497C8.54131 6.96861 8.76692 6.87714 8.99049 6.69721C9.45627 6.32232 9.81416 5.64777 9.81416 4.51282C9.81416 3.46108 9.44238 2.83446 8.97031 2.49251C8.74682 2.33062 8.52386 2.24994 8.35629 2.20948C8.27212 2.18916 8.20007 2.17852 8.14605 2.17293C8.11895 2.17012 8.09612 2.16856 8.07825 2.1677C8.06931 2.16727 8.06158 2.16701 8.05516 2.16686L8.0465 2.16671L8.04291 2.16668L8.0413 2.16667L8.04055 2.16667C8.04018 2.16667 8.03982 2.16667 8.03982 2.66667V2.16667H3.47345ZM8.12502 8.50803C8.12474 8.50809 8.12468 8.5081 8.12485 8.50807L8.12502 8.50803Z" fill="black" stroke="black"/>
    <path d="M17.6429 5.13636H23.4286V6.59091H17.6429H17.1429V7.09091V9.54545V10.0455H17.6429H24V11.5H15V3.02438V0.500021L24 0.500398V2.02107L17.6428 2.02211L17.1429 2.02219V2.52211V4.63636V5.13636H17.6429Z" fill="black" stroke="black"/>
    <path fill-rule="evenodd" clip-rule="evenodd" d="M31.1667 0L26.5 12H29.7083L30.5833 9.81818H36.4167L37.2917 12H40.5L35.8333 0H31.1667ZM34.0833 2.45455H32.9167L31.4583 7.36364H35.5417L34.0833 2.45455Z" fill="black"/>
    <path d="M45.3741 10.0455L52 10.0455V11.5H43V0.5L44.8741 0.5V9.54545V10.0455H45.3741Z" fill="black" stroke="black"/>
    <path d="M57 11.5H55V0.5H57V11.5Z" fill="black" stroke="black"/>
    <path d="M66.5513 1.95455H66.0513V2.45455V11.5H63.9487V2.45455V1.95455H63.4487H60V0.5H70V1.95455H66.5513Z" fill="black" stroke="black"/>
    <path d="M84.5546 0.5L79.8867 7.35494L79.8 7.48229V7.63636V11.5H77.9111V7.63636V7.48946L77.8316 7.36591L73.416 0.5H75.4058L78.4358 5.1808L78.8375 5.80138L79.264 5.19751L82.5812 0.5H84.5546Z" fill="black" stroke="black"/>
    <path d="M99.0022 2.83939H96.2059L98.2188 0.500006H101.017L99.0022 2.83939ZM94.7356 3.6638L101.417 11.5H98.0607L95.1979 8.15502L95.1965 8.15347L88.5919 0.5H92.0381L94.7356 3.66379L94.7356 3.6638ZM90.9439 8.98014H93.7319L91.5753 11.5H88.7729L90.9439 8.98014Z" fill="#D38B00" stroke="#D38B00"/>
</svg>
